<?xml version="1.0" standalone="no"?><!DOCTYPE svg PUBLIC "-//W3C//DTD SVG 1.1//EN" "http://www.w3.org/Graphics/SVG/1.1/DTD/svg11.dtd"><svg t="1755573775886" class="icon" viewBox="0 0 1024 1024" version="1.1" xmlns="http://www.w3.org/2000/svg" p-id="1710" xmlns:xlink="http://www.w3.org/1999/xlink" width="200" height="200"><path d="M277.328557 715.183649l-52.602092-320.383024-76.530145-104.845786C9.376217 447.25357 10.248838 685.434417 150.776338 841.735867l126.552219-126.552218zM485.915996 267.106432l33.776197 205.715806 85.129463-85.129462-9.943866-60.571431c-1.992335-12.132095 6.228551-23.580785 18.360645-25.57312 12.125417-1.996787 23.580785 6.226325 25.573121 18.360645l4.766021 29.030211 89.797536-89.797536-19.190971-116.884386c-35.721784 10.834295-69.108419 23.309205-97.366182 43.688898l8.672778 52.824699c1.992335 12.132095-6.226325 23.580785-18.360645 25.57312-1.219888 0.200347-2.435323 0.298294-3.632951 0.298294-10.707408 0-20.148182-7.746732-21.937943-18.656713l-9.972805-60.736161-32.872412-45.028993c-29.203844 36.278303-47.657985 80.427997-52.797986 126.886129zM772.126582 220.38785l170.928972-170.928973c-13.543425 5.534016-30.86672 15.215205-50.872433 26.396767-5.983683 3.341335-12.274563 6.858529-18.906034 10.515967-36.892699 20.348528-76.930837 32.338154-116.022895 43.448481l14.87239 90.567758zM268.152686 384.509492l47.929566 291.920462 164.85402-164.854021-38.602322-235.10664-86.324863-118.264551c-54.576618 62.988946-85.530155 142.350654-87.856401 226.30475z" fill="#70AD46" p-id="1711"></path><path d="M512.419615 543.05705l-164.854021 164.856246 119.181692 19.569403c12.132095 1.992335 20.35298 13.441025 18.360646 25.57312-1.791988 10.909981-11.232762 18.656713-21.937944 18.656713a22.171681 22.171681 0 0 1-3.63295-0.298293l-150.722913-24.747248-126.55667 126.556671c76.287502 68.678787 173.925266 106.241533 277.344139 106.241533 102.112169 0 198.596827-36.627796 274.450245-103.661515l-104.850238-76.534597-88.537579-14.536253c-12.132095-1.992335-20.35298-13.441025-18.360646-25.57312 1.992335-12.132095 13.441025-20.357432 25.57312-18.360646l91.60956 15.041572c83.958548-2.32402 163.320257-33.277557 226.309202-87.856401l-118.264551-86.324863-235.111092-38.602322zM636.302772 419.176118l-85.129462 85.129463 205.718032 33.776197c46.458132-5.140001 90.607826-23.594142 126.886129-52.797986l-45.028993-32.86796-202.445706-33.239714zM764.851777 290.624887l-89.797536 89.797536 162.993024 26.761843c20.379693-28.25999 32.854603-61.646624 43.688898-97.368408l-116.884386-19.190971zM974.481019 80.995646l-170.875547 170.875546 90.569983 14.870164c11.108101-39.092058 23.099954-79.130197 43.448482-116.022895 3.657437-6.63147 7.172405-12.920124 10.51374-18.901582 12.875603-23.037624 21.506086-39.092058 26.343342-50.821233z" fill="#A1CE57" p-id="1712"></path><path d="M1005.39226 18.605513l-0.002226-0.002226C993.046463 6.261942 978.519114 0.002226 962.210907 0.002226c-25.564216 0-51.894201 14.714339-91.749801 36.98842-5.912448 3.303491-12.132095 6.778391-18.685652 10.393532-35.060641 19.335665-75.697593 30.837781-114.998903 41.961465-47.838297 13.541199-97.085697 27.480864-139.345456 55.803184l-38.936233-53.341147a22.269629 22.269629 0 0 0-33.722771-2.615636c-34.648818 34.651044-59.832375 77.545233-73.398061 124.14806l-75.294674-103.151744a22.269629 22.269629 0 0 0-16.259233-9.069019 22.309698 22.309698 0 0 0-17.463538 6.453384c-59.932548 59.932548-98.973407 135.792645-113.035507 218.014856L168.335598 242.03863a22.265177 22.265177 0 0 0-33.722772-2.617861c-173.914135 173.914135-179.022972 453.675789-15.353221 633.827379L6.520166 985.994265c-8.692813 8.692813-8.692813 22.788304 0 31.483343 4.347519 4.347519 10.044039 6.520166 15.740558 6.520166s11.395265-2.172647 15.740559-6.520166l112.734986-112.734987c84.724317 77.05995 193.548094 119.246248 308.858647 119.246249 122.758991 0 238.171942-47.807132 324.977637-134.610601a22.269629 22.269629 0 0 0-2.615635-33.722771l-83.548951-60.985481c82.219986-14.0621 158.080082-53.105184 218.01263-113.035506a22.260724 22.260724 0 0 0-2.615635-33.722771l-103.151745-75.294674c46.6006-13.565685 89.497016-38.749243 124.14806-73.398061a22.269629 22.269629 0 0 0-2.615635-33.722771l-53.341148-38.936233c28.324546-42.259759 42.261985-91.50716 55.803184-139.345457 11.123684-39.301309 22.628026-79.938261 41.961466-114.998902 3.615142-6.551331 7.090041-12.770978 10.393532-18.6812 15.849636-28.362389 28.369067-50.763356 33.842979-70.45074 7.176858-25.81131 2.123673-46.90112-15.453395-64.478189zM639.481603 755.840636l-91.609559-15.041572c-12.132095-1.996787-23.580785 6.228551-25.57312 18.360646-1.992335 12.132095 6.228551 23.580785 18.360646 25.57312l88.537579 14.536253 104.850238 76.534597c-75.851192 67.033719-172.338076 103.661515-274.450245 103.661515-103.418873 0-201.056637-37.562746-277.344139-106.241533l126.55667-126.556671 150.722913 24.747248c1.222114 0.200347 2.435323 0.298294 3.63295 0.298293 10.707408 0 20.148182-7.746732 21.937944-18.656713 1.992335-12.132095-6.226325-23.580785-18.360646-25.57312l-119.181692-19.569403 164.854021-164.856246 235.10664 38.602322 118.264551 86.324863c-62.984494 54.578844-142.348428 85.534607-226.304751 87.856401zM148.19632 289.957065l76.530145 104.845786 52.602092 320.383024-126.552219 126.552218c-140.527501-156.303676-141.400121-394.484523-2.580018-551.781028z m743.986801-214.101421c20.005713-11.181562 37.329009-20.862751 50.872433-26.396767l-170.928972 170.928973-14.870164-90.569984c39.092058-11.108101 79.130197-23.099954 116.022895-43.448481 6.629244-3.655211 12.920124-7.172405 18.903808-10.513741zM838.049491 407.18204l-162.993024-26.761843 89.797536-89.797536 116.884386 19.190971c-10.834295 35.72401-23.309205 69.110645-43.688898 97.368408zM571.581942 185.249296l9.972804 60.736161c1.791988 10.909981 11.230535 18.656713 21.937944 18.656713 1.199853 0 2.413063-0.095721 3.63295-0.298294 12.132095-1.992335 20.35298-13.441025 18.360646-25.57312l-8.672778-52.824699c28.25999-20.379693 61.646624-32.854603 97.366182-43.688898l19.190971 116.884386-89.797536 89.797536-4.766022-29.030211c-1.992335-12.132095-13.447704-20.357432-25.57312-18.360645-12.132095 1.992335-20.35298 13.441025-18.360645 25.57312l9.943865 60.571431-85.129462 85.129462-33.776197-205.715806c5.140001-46.458132 23.594142-90.607826 52.797986-126.886129l32.872412 45.028993z m-129.245766 91.219997l38.602322 235.10664-164.85402 164.854021L268.152686 384.509492c2.32402-83.956322 33.277557-163.318031 87.858627-226.30475l86.324863 118.264551z m314.555166 261.610259l-205.718032-33.776197 85.129462-85.129463 202.44348 33.239714 45.028993 32.86796c-36.276076 29.203844-80.427997 47.657985-126.883903 52.797986z m180.732595-387.361091c-20.348528 36.892699-32.338154 76.930837-43.448482 116.022895l-90.569983-14.870164 170.875547-170.875546c-4.837255 11.729176-13.467738 27.78361-26.341116 50.821233-3.341335 5.981457-6.858529 12.270111-10.515966 18.901582z" p-id="1713"></path></svg>